HIERARCHY
ROOT root
{
	OFFSET	0	13.1	24.9
	CHANNELS 6  Xposition Yposition Zposition Xrotation Yrotation Zrotation
	JOINT spine_1
	{
		OFFSET	0	9.99999	0
		CHANNELS 3  Xrotation Yrotation Zrotation
		JOINT spine_2
		{
			OFFSET	0	112	-10
			CHANNELS 3  Xrotation Yrotation Zrotation
			JOINT spine_3
			{
				OFFSET	0	206.5	19.3
				CHANNELS 3  Xrotation Yrotation Zrotation
				JOINT spine_4
				{
					OFFSET	0	110.4	14.6
					CHANNELS 3  Xrotation Yrotation Zrotation
					JOINT neck_1
					{
						OFFSET	0	71.8	-50.3
						CHANNELS 3  Xrotation Yrotation Zrotation
						JOINT neck_2
						{
							OFFSET	0	86.2	-25.8
							CHANNELS 3  Xrotation Yrotation Zrotation
							JOINT head_ee
							{
								OFFSET	0	179.8	-8.7
								CHANNELS 3  Xrotation Yrotation Zrotation
								End Site
								{
									OFFSET	1	0	0
								}
							}
						}
					}
					JOINT left_clavicle
					{
						OFFSET	-43.2	22.4	-70.8
						CHANNELS 3  Xrotation Yrotation Zrotation
						JOINT left_shoulder
						{
							OFFSET	-93.9	-5.79999	48.7
							CHANNELS 3  Xrotation Yrotation Zrotation
							JOINT left_elbow
							{
								OFFSET	-291.4	-30.8	15.2
								CHANNELS 3  Xrotation Yrotation Zrotation
								JOINT left_lowarm_twist
								{
									OFFSET	-110.7	-3.89999	13.6
									CHANNELS 3  Xrotation Yrotation Zrotation
									JOINT left_hand
									{
										OFFSET	-110.7	-3.89999	13.6
										CHANNELS 3  Xrotation Yrotation Zrotation
										JOINT left_ee
										{
											OFFSET	-80.8	-5.10001	12.1
											CHANNELS 3  Xrotation Yrotation Zrotation
											End Site
											{
												OFFSET	1	0	0
											}
										}
									}
								}
							}
						}
					}
					JOINT right_clavicle
					{
						OFFSET	43.2	22.4	-70.8
						CHANNELS 3  Xrotation Yrotation Zrotation
						JOINT right_shoulder
						{
							OFFSET	93.9	-5.79999	48.7
							CHANNELS 3  Xrotation Yrotation Zrotation
							JOINT right_elbow
							{
								OFFSET	291.4	-30.8	15.2
								CHANNELS 3  Xrotation Yrotation Zrotation
								JOINT right_lowarm_twist
								{
									OFFSET	110.7	-3.89999	13.6
									CHANNELS 3  Xrotation Yrotation Zrotation
									JOINT right_hand
									{
										OFFSET	110.7	-3.89999	13.6
										CHANNELS 3  Xrotation Yrotation Zrotation
										JOINT right_ee
										{
											OFFSET	80.8	-5.10001	12.1
											CHANNELS 3  Xrotation Yrotation Zrotation
											End Site
											{
												OFFSET	1	0	0
											}
										}
									}
								}
							}
						}
					}
				}
			}
		}
	}
	JOINT left_hip
	{
		OFFSET	-82.8	-127.5	0.300001
		CHANNELS 3  Xrotation Yrotation Zrotation
		JOINT left_knee
		{
			OFFSET	-28.2	-396.7	2.2
			CHANNELS 3  Xrotation Yrotation Zrotation
			JOINT left_ankle
			{
				OFFSET	-11.7	-411.3	35.4
				CHANNELS 3  Xrotation Yrotation Zrotation
				JOINT left_toes
				{
					OFFSET	0	-60	-88.6
					CHANNELS 3  Xrotation Yrotation Zrotation
					JOINT left_foot_ee
					{
						OFFSET	-22.5	-16.5	-42.2
						CHANNELS 3  Xrotation Yrotation Zrotation
						End Site
						{
							OFFSET	1	0	0
						}
					}
				}
			}
		}
	}
	JOINT right_hip
	{
		OFFSET	82.8	-127.5	0.300001
		CHANNELS 3  Xrotation Yrotation Zrotation
		JOINT right_knee
		{
			OFFSET	28.2	-396.7	2.2
			CHANNELS 3  Xrotation Yrotation Zrotation
			JOINT right_ankle
			{
				OFFSET	11.7	-411.3	35.4
				CHANNELS 3  Xrotation Yrotation Zrotation
				JOINT right_toes
				{
					OFFSET	0	-60	-88.6
					CHANNELS 3  Xrotation Yrotation Zrotation
					JOINT right_foot_ee
					{
						OFFSET	22.5	-16.5	-42.2
						CHANNELS 3  Xrotation Yrotation Zrotation
						End Site
						{
							OFFSET	1	0	0
						}
					}
				}
			}
		}
	}
}
MOTION
Frames: 12
Frame Time: 0.02
3177.02 653.055 -1669.29 5.83816769264 73.3475879312 -1.72117125368 -2.53764 0.485937 1.678 -2.53616 0.378192 1.70551 -2.52272 -0.0655753 1.7457 -2.52691 0.210906 1.73415 -4.65613 -1.5153 -12.654 -4.16272 6.84315 -13.2532 -0.0 0.0 -0.0 -0.272646 21.0692 2.05923 -29.3906 -48.8334 61.9048 0.264786 -7.47284 0.017292 -74.6541 -7.14068 5.31972 0.831405 1.58184 6.20535 -0.0 0.0 -0.0 6.88258 26.7254 -11.8948 15.5156 16.1181 -50.7298 3.94569 62.8871 -2.41317 0.323825 -0.0112973 0.0398138 -4.12419 -3.19782 26.9638 0.0 0.0 0.0 30.6869 25.2345 -9.69855 5.38526 -0.25892 -0.785326 12.0532 6.1936 -1.70136 -12.4792 0.0 0.0 -0.0 0.0 -0.0 -15.0031 22.4644 -4.88694 -14.9073 -0.321527 -2.25867 27.5005 -10.5609 3.62454 5.83661 -0.0 -0.0 0.0 0.0 0.0 
3069.52130122 642.847 -1660.01071628 1.72550044008 70.3908960591 1.82022812872 -2.00699 0.770136 1.23838 -2.0064 0.689781 1.28486 -1.98965 0.35558 1.41428 -1.99198 0.574456 1.34039 -1.07933 -2.17163 -7.96655 -0.888488 2.53043 -8.73444 -0.0 0.0 -0.0 0.610708 21.0618 3.32804 -27.5399 -49.3185 61.0511 0.312957 -8.8126 0.0241154 -75.0469 -7.19087 5.31896 0.964372 1.31736 6.98902 -0.0 0.0 -0.0 7.98724 28.0319 -14.1777 11.5185 12.5906 -48.6245 3.41632 59.4071 -1.9493 1.38249 -0.046655 0.170403 -4.28004 -6.89307 25.9372 0.0 0.0 0.0 32.4526 23.2137 -9.39676 -11.7358 0.302571 1.77248 5.27234 8.57962 -0.760849 -10.4219 0.0 0.0 -0.0 0.0 -0.0 -19.884 28.4936 -1.36937 -15.2844 -0.32199 -2.31653 26.2154 -21.9702 3.59948 7.08474 -0.0 -0.0 0.0 0.0 0.0 
3069.59872873 642.847 -1659.15363857 1.76506479181 70.8476604844 1.77828749915 -2.00699 0.770136 1.23838 -2.0064 0.689781 1.28486 -1.98965 0.35558 1.41428 -1.99198 0.574456 1.34039 -1.07933 -2.17163 -7.96655 -0.888488 2.53043 -8.73444 -0.0 0.0 -0.0 0.610708 21.0618 3.32804 -27.5399 -49.3185 61.0511 0.312957 -8.8126 0.0241154 -75.0469 -7.19087 5.31896 0.964372 1.31736 6.98902 -0.0 0.0 -0.0 7.98724 28.0319 -14.1777 11.5185 12.5906 -48.6245 3.41632 59.4071 -1.9493 1.38249 -0.046655 0.170403 -4.28004 -6.89307 25.9372 0.0 0.0 0.0 32.4526 23.2137 -9.39676 -11.7358 0.302571 1.77248 5.27234 8.57962 -0.760849 -10.4219 0.0 0.0 -0.0 0.0 -0.0 -19.884 28.4936 -1.36937 -15.2844 -0.32199 -2.31653 26.2154 -21.9702 3.59948 7.08474 -0.0 -0.0 0.0 0.0 0.0 
3069.68425233 642.847 -1658.28488223 1.80721607116 71.3109898691 1.73372899808 -2.00699 0.770136 1.23838 -2.0064 0.689781 1.28486 -1.98965 0.35558 1.41428 -1.99198 0.574456 1.34039 -1.07933 -2.17163 -7.96655 -0.888488 2.53043 -8.73444 -0.0 0.0 -0.0 0.610708 21.0618 3.32804 -27.5399 -49.3185 61.0511 0.312957 -8.8126 0.0241154 -75.0469 -7.19087 5.31896 0.964372 1.31736 6.98902 -0.0 0.0 -0.0 7.98724 28.0319 -14.1777 11.5185 12.5906 -48.6245 3.41632 59.4071 -1.9493 1.38249 -0.046655 0.170403 -4.28004 -6.89307 25.9372 0.0 0.0 0.0 32.4526 23.2137 -9.39676 -11.7358 0.302571 1.77248 5.27234 8.57962 -0.760849 -10.4219 0.0 0.0 -0.0 0.0 -0.0 -19.884 28.4936 -1.36937 -15.2844 -0.32199 -2.31653 26.2154 -21.9702 3.59948 7.08474 -0.0 -0.0 0.0 0.0 0.0 
3007.34736674 654.979 -1654.39060204 5.99697995371 71.5460227327 -3.31728498432 -2.1032 0.548863 0.692767 -2.10307 0.50367 0.726287 -2.09626 0.309738 0.827787 -2.09695 0.43658 0.768487 0.122093 -2.16785 -6.76812 0.25752 1.70095 -7.52267 -0.0 0.0 -0.0 1.20995 20.9466 4.18128 -25.2989 -49.7333 61.2753 0.362477 -10.1798 0.0322858 -75.4432 -7.24148 5.31785 0.802177 1.57389 6.00662 -0.0 0.0 -0.0 8.52686 28.1175 -15.3572 7.04123 10.8256 -49.6709 3.32493 58.7229 -1.87091 1.66714 -0.0557492 0.205623 -4.3061 -8.06336 25.4156 0.0 0.0 0.0 28.0584 19.966 -5.11106 -18.2883 0.312083 2.77724 2.84375 10.4951 -0.413486 -9.64351 0.0 0.0 -0.0 0.0 -0.0 -21.7085 30.3371 0.0545767 -16.4542 -0.321004 -2.496 23.9244 -27.0894 3.41698 7.2619 -0.0 -0.0 0.0 0.0 0.0 
2967.58777383 663.398 -1651.62277003 8.23113294177 73.8577131884 -4.94796791769 -2.25847 -0.0671262 0.352208 -2.2584 -0.0894019 0.347223 -2.25891 -0.1729 0.314105 -2.25903 -0.121123 0.337469 1.52747 1.60287 -3.69774 1.61258 5.91751 -3.9141 -0.0 0.0 -0.0 1.88884 19.7054 5.08873 -21.408 -50.4483 60.6031 0.400424 -11.2197 0.0393314 -75.0395 -7.18993 5.31898 0.586708 3.64492 5.40953 -0.0 0.0 -0.0 8.88253 27.8501 -16.1737 2.75903 10.8055 -49.1449 3.02522 56.2737 -1.61809 3.43461 -0.108288 0.425268 -3.70176 -9.24537 20.444 0.0 0.0 0.0 24.947 18.0164 -3.21692 -21.89 0.268395 3.32808 1.97332 14.2328 -0.2889 -7.92435 0.0 0.0 -0.0 0.0 -0.0 -17.048 28.6717 -1.4071 -33.1532 0.089569 -5.0168 19.4152 -26.7559 2.82054 8.91121 -0.0 -0.0 0.0 0.0 0.0 
2967.81822117 663.398 -1649.07604183 8.5915565862 74.5473187952 -5.32253225465 -2.25847 -0.0671262 0.352208 -2.2584 -0.0894019 0.347223 -2.25891 -0.1729 0.314105 -2.25903 -0.121123 0.337469 1.52747 1.60287 -3.69774 1.61258 5.91751 -3.9141 -0.0 0.0 -0.0 1.88884 19.7054 5.08873 -21.408 -50.4483 60.6031 0.400424 -11.2197 0.0393314 -75.0395 -7.18993 5.31898 0.586708 3.64492 5.40953 -0.0 0.0 -0.0 8.88253 27.8501 -16.1737 2.75903 10.8055 -49.1449 3.02522 56.2737 -1.61809 3.43461 -0.108288 0.425268 -3.70176 -9.24537 20.444 0.0 0.0 0.0 24.947 18.0164 -3.21692 -21.89 0.268395 3.32808 1.97332 14.2328 -0.2889 -7.92435 0.0 0.0 -0.0 0.0 -0.0 -17.048 28.6717 -1.4071 -33.1532 0.089569 -5.0168 19.4152 -26.7559 2.82054 8.91121 -0.0 -0.0 0.0 0.0 0.0 
2967.9463353 663.398 -1647.79136974 8.78619331521 74.8952302469 -5.52429946803 -2.25847 -0.0671262 0.352208 -2.2584 -0.0894019 0.347223 -2.25891 -0.1729 0.314105 -2.25903 -0.121123 0.337469 1.52747 1.60287 -3.69774 1.61258 5.91751 -3.9141 -0.0 0.0 -0.0 1.88884 19.7054 5.08873 -21.408 -50.4483 60.6031 0.400424 -11.2197 0.0393314 -75.0395 -7.18993 5.31898 0.586708 3.64492 5.40953 -0.0 0.0 -0.0 8.88253 27.8501 -16.1737 2.75903 10.8055 -49.1449 3.02522 56.2737 -1.61809 3.43461 -0.108288 0.425268 -3.70176 -9.24537 20.444 0.0 0.0 0.0 24.947 18.0164 -3.21692 -21.89 0.268395 3.32808 1.97332 14.2328 -0.2889 -7.92435 0.0 0.0 -0.0 0.0 -0.0 -17.048 28.6717 -1.4071 -33.1532 0.089569 -5.0168 19.4152 -26.7559 2.82054 8.91121 -0.0 -0.0 0.0 0.0 0.0 
2968.08804272 663.398 -1646.45525459 8.99862971697 75.2571080997 -5.74415058067 -2.25847 -0.0671262 0.352208 -2.2584 -0.0894019 0.347223 -2.25891 -0.1729 0.314105 -2.25903 -0.121123 0.337469 1.52747 1.60287 -3.69774 1.61258 5.91751 -3.9141 -0.0 0.0 -0.0 1.88884 19.7054 5.08873 -21.408 -50.4483 60.6031 0.400424 -11.2197 0.0393314 -75.0395 -7.18993 5.31898 0.586708 3.64492 5.40953 -0.0 0.0 -0.0 8.88253 27.8501 -16.1737 2.75903 10.8055 -49.1449 3.02522 56.2737 -1.61809 3.43461 -0.108288 0.425268 -3.70176 -9.24537 20.444 0.0 0.0 0.0 24.947 18.0164 -3.21692 -21.89 0.268395 3.32808 1.97332 14.2328 -0.2889 -7.92435 0.0 0.0 -0.0 0.0 -0.0 -17.048 28.6717 -1.4071 -33.1532 0.089569 -5.0168 19.4152 -26.7559 2.82054 8.91121 -0.0 -0.0 0.0 0.0 0.0 
2950.98258165 681.701 -1650.5780887 12.2256829731 76.5237361863 -8.23514044373 -2.38813 -0.302667 0.157359 -2.38817 -0.312067 0.137781 -2.389 -0.336646 0.0551276 -2.38886 -0.323714 0.107603 1.40763 3.46224 -2.13942 1.48659 7.89252 -2.03575 -0.0 0.0 -0.0 2.17896 18.8526 5.47368 -19.6323 -51.1659 59.8235 0.418068 -11.7007 0.0428373 -74.8849 -7.17017 5.31932 0.146799 6.81335 3.79846 -0.0 0.0 -0.0 9.15451 27.5912 -16.8056 -0.718703 10.6032 -50.125 2.89543 55.1051 -1.51088 4.26342 -0.130584 0.528792 -3.43816 -8.81623 18.8735 0.0 0.0 0.0 22.5932 16.8816 -4.1665 -22.3009 0.261214 3.39072 1.8098 16.4955 -0.266361 -7.30412 0.0 0.0 -0.0 0.0 -0.0 -9.19138 29.0994 -1.83862 -41.324 0.553144 -6.18262 11.0962 -28.3299 1.67736 7.55141 -0.0 -0.0 0.0 0.0 0.0 
2931.75580811 690.258 -1645.29520601 12.3062311791 75.6860848459 -8.45215896303 -2.50869 0.00720428 0.0351511 -2.50869 0.00495293 0.0355383 -2.50869 -0.00419085 0.0356362 -2.50869 0.00148982 0.0358508 0.858423 5.18944 0.0976301 0.924114 9.11168 0.598322 -0.0 0.0 -0.0 2.56909 18.3858 6.04125 -17.362 -51.8781 59.4855 0.452841 -12.6437 0.0501693 -74.7968 -7.15891 5.31948 -0.332768 10.2098 2.09567 -0.0 0.0 -0.0 9.3409 27.1928 -17.2641 -3.13835 10.4897 -50.782 2.81027 54.2992 -1.44137 4.83758 -0.145149 0.600689 -3.2523 -8.51709 17.7689 0.0 0.0 0.0 21.0895 15.9236 -4.81143 -21.9669 0.267086 3.3398 2.63513 18.1447 -0.388805 -6.6529 0.0 0.0 -0.0 0.0 -0.0 -3.86213 29.1659 -3.98255 -48.5896 1.10156 -7.15589 4.56508 -28.3549 0.703133 6.42509 -0.0 -0.0 0.0 0.0 0.0 
2926.65465507 684.873 -1643.92080865 12.7074831626 76.7974193868 -8.54321580252 -2.4617 0.127765 -0.219565 -2.46169 0.141477 -0.21099 -2.46222 0.190079 -0.168531 -2.46222 0.161077 -0.196435 0.257975 6.39716 0.474621 0.344887 10.9929 1.16355 -0.0 0.0 -0.0 2.74319 17.9089 6.28732 -15.3701 -52.326 57.8267 0.515818 -14.3338 0.0648606 -74.8832 -7.16995 5.31932 -0.654802 12.6746 1.08814 -0.0 0.0 -0.0 9.45391 26.91 -17.5468 -5.04033 10.3303 -50.4109 2.82694 54.4595 -1.45492 5.57396 -0.162774 0.693104 -3.08992 -9.61794 16.0735 0.0 0.0 0.0 20.0414 15.2263 -5.34704 -19.2237 0.304068 2.92054 4.49049 19.0109 -0.661184 -6.93204 0.0 0.0 -0.0 0.0 -0.0 -0.838466 29.0968 -4.96967 -53.7072 1.56013 -7.79672 -1.957 -28.4117 -0.305984 4.56369 -0.0 -0.0 0.0 0.0 0.0 
